<?xml version="1.0" standalone="no"?>
<!DOCTYPE svg PUBLIC "-//W3C//DTD SVG 20010904//EN"
 "http://www.w3.org/TR/2001/REC-SVG-20010904/DTD/svg10.dtd">
<svg version="1.0" xmlns="http://www.w3.org/2000/svg"
 width="700.000000pt" height="700.000000pt" viewBox="0 0 700.000000 700.000000"
 preserveAspectRatio="xMidYMid meet">
<metadata>
Created by potrace 1.14, written by Peter Selinger 2001-2017
</metadata>
<g transform="translate(0.000000,700.000000) scale(0.100000,-0.100000)"
fill="#000000" stroke="none">
<path d="M6085 5534 c-115 -15 -174 -23 -205 -29 -14 -2 -54 -9 -90 -15 -71
-11 -107 -17 -160 -26 -19 -3 -46 -8 -60 -10 -14 -3 -59 -11 -100 -18 -41 -8
-91 -17 -110 -21 -19 -3 -114 -21 -210 -40 -96 -18 -188 -36 -205 -39 -114
-21 -142 -27 -160 -30 -48 -11 -333 -67 -360 -71 -26 -5 -53 -10 -150 -29
-180 -36 -292 -59 -309 -62 -12 -2 -115 -22 -231 -44 -115 -22 -223 -42 -240
-45 -132 -25 -404 -71 -480 -80 -27 -4 -61 -8 -75 -10 -14 -2 -52 -7 -85 -10
-33 -4 -67 -8 -75 -10 -8 -2 -53 -7 -100 -10 -47 -4 -92 -8 -101 -10 -9 -2
-52 -6 -95 -10 -43 -3 -101 -8 -129 -11 -101 -10 -142 -13 -215 -19 -41 -3
-95 -8 -120 -10 -25 -3 -81 -7 -125 -10 -44 -3 -96 -8 -115 -10 -19 -2 -78 -7
-130 -10 -52 -3 -106 -8 -120 -10 -14 -2 -68 -7 -120 -10 -52 -4 -111 -8 -130
-10 -19 -2 -73 -6 -120 -10 -106 -8 -161 -13 -225 -20 -27 -3 -81 -8 -120 -11
-38 -4 -81 -8 -95 -9 -14 -2 -50 -6 -80 -9 -280 -30 -314 -49 -312 -174 1 -60
22 -253 57 -502 2 -19 7 -57 10 -85 3 -27 8 -61 10 -75 2 -14 6 -59 10 -100 3
-41 8 -82 10 -90 11 -46 20 -270 20 -520 0 -253 -3 -322 -20 -460 -4 -32 -11
-102 -20 -199 -2 -20 -6 -58 -9 -86 -14 -133 -19 -229 -19 -321 1 -184 45
-234 200 -227 43 2 85 6 93 9 9 3 11 2 5 -4 -5 -5 -30 -14 -55 -21 -78 -23
-117 -44 -134 -73 -33 -55 -9 -291 47 -458 18 -52 28 -68 57 -85 60 -34 201
-25 460 31 14 3 36 7 50 10 14 3 41 9 60 14 31 8 183 39 265 55 17 3 46 8 65
10 19 3 44 7 55 9 11 3 61 7 110 11 145 10 288 26 335 40 8 2 31 6 50 9 19 3
60 10 90 16 30 6 66 13 79 16 23 5 134 29 176 39 11 3 34 7 50 11 211 43 1604
400 1635 419 4 2 20 7 36 9 16 3 135 35 264 72 129 36 244 67 254 69 10 3 33
9 51 15 18 6 41 13 51 15 10 2 82 20 159 40 77 19 154 38 170 40 17 3 37 8 45
10 8 2 26 6 40 9 14 3 35 7 46 10 12 2 39 7 60 10 22 4 75 13 119 21 44 7 104
17 134 20 30 4 61 8 70 10 17 3 98 12 166 19 51 6 194 15 450 31 233 14 315
36 377 102 56 59 84 188 104 483 7 110 7 593 0 691 -3 37 -8 109 -11 160 -3
52 -8 108 -10 124 -2 17 -7 57 -10 90 -4 33 -9 69 -11 80 -3 11 -7 36 -10 55
-19 115 -65 178 -146 201 -87 24 -233 29 -413 15 -38 -3 -63 -3 -55 0 8 3 85
28 170 56 187 61 328 126 363 167 33 39 49 119 50 241 1 94 -10 257 -18 270
-2 4 -7 22 -10 41 -31 181 -122 345 -212 380 -39 16 -152 17 -258 3z"/>
</g>
</svg>
